<?xml version="1.0" encoding="utf-8"?>
<!-- Generator: Adobe Illustrator 21.0.0, SVG Export Plug-In . SVG Version: 6.00 Build 0)  -->
<svg version="1.1" id="Layer_1" xmlns="http://www.w3.org/2000/svg" xmlns:xlink="http://www.w3.org/1999/xlink" x="0px" y="0px"
	 viewBox="0 0 45 45" style="enable-background:new 0 0 45 45;" xml:space="preserve">
<style type="text/css">
	.st0{fill:#FFFFFF;}
</style>
<g>
	<path class="st0" d="M21.9,24.6c-0.5,0.1-1,0.2-1.5,0.1c-1.9-0.2-3.5-1.5-4-3.4c-0.3-1.2-0.1-2.4,0.5-3.4c0.6-1,1.6-1.8,2.8-2.1
		c0.5-0.1,1-0.2,1.5-0.1c1.9,0.2,3.5,1.5,4,3.4c0.3,1.2,0.1,2.4-0.5,3.4S23,24.3,21.9,24.6 M29.9,27.8L29.9,27.8
		c0-0.1-0.1-0.1-0.1-0.2l-3.8-4.1c0.9-1.4,1.2-3.2,0.8-4.9c-0.7-2.6-3-4.4-5.5-4.6c-0.7-0.1-1.4,0-2,0.2c-3.3,0.9-5.3,4.2-4.4,7.6
		c0.7,2.6,3,4.4,5.5,4.6c0.7,0.1,1.4,0,2-0.2c0.3-0.1,0.6-0.2,0.9-0.3l4,4.2c0,0,0.1,0,0.1,0.1l0,0c0.8,0.8,2,1,2.7,0.3
		C30.7,29.9,30.6,28.7,29.9,27.8"/>
</g>
</svg>
